<mxfile host="app.diagrams.net" modified="2022-06-02T19:48:18.178Z" agent="5.0 (Windows NT 10.0; Win64; x64) AppleWebKit/537.36 (KHTML, like Gecko) Chrome/102.0.5005.63 Safari/537.36" etag="VlQz_D1maEIHWQS6gcmk" version="18.0.7" type="github">
  <diagram id="9ImQfzkRJKaiHpM_LDbs" name="Page-1">
    <mxGraphModel dx="1803" dy="668" grid="1" gridSize="10" guides="1" tooltips="1" connect="1" arrows="1" fold="1" page="1" pageScale="1" pageWidth="1100" pageHeight="850" math="0" shadow="0">
      <root>
        <mxCell id="0" />
        <mxCell id="1" parent="0" />
        <mxCell id="kCsJqG-bQ9eDfg5gPCeY-2" value="AWS Cloud" style="points=[[0,0],[0.25,0],[0.5,0],[0.75,0],[1,0],[1,0.25],[1,0.5],[1,0.75],[1,1],[0.75,1],[0.5,1],[0.25,1],[0,1],[0,0.75],[0,0.5],[0,0.25]];outlineConnect=0;gradientColor=none;html=1;whiteSpace=wrap;fontSize=12;fontStyle=0;container=1;pointerEvents=0;collapsible=0;recursiveResize=0;shape=mxgraph.aws4.group;grIcon=mxgraph.aws4.group_aws_cloud_alt;strokeColor=#232F3E;fillColor=none;verticalAlign=top;align=left;spacingLeft=30;fontColor=#232F3E;dashed=0;" vertex="1" parent="1">
          <mxGeometry x="230" y="10" width="605" height="815" as="geometry" />
        </mxCell>
        <mxCell id="kCsJqG-bQ9eDfg5gPCeY-3" value="Availability Zone 1" style="sketch=0;outlineConnect=0;gradientColor=none;html=1;whiteSpace=wrap;fontSize=12;fontStyle=0;shape=mxgraph.aws4.group;grIcon=mxgraph.aws4.group_availability_zone;strokeColor=#545B64;fillColor=none;verticalAlign=top;align=left;spacingLeft=30;fontColor=#545B64;dashed=1;" vertex="1" parent="kCsJqG-bQ9eDfg5gPCeY-2">
          <mxGeometry x="25" y="135" width="195" height="175" as="geometry" />
        </mxCell>
        <mxCell id="kCsJqG-bQ9eDfg5gPCeY-4" value="Availability Zone2" style="sketch=0;outlineConnect=0;gradientColor=none;html=1;whiteSpace=wrap;fontSize=12;fontStyle=0;shape=mxgraph.aws4.group;grIcon=mxgraph.aws4.group_availability_zone;strokeColor=#545B64;fillColor=none;verticalAlign=top;align=left;spacingLeft=30;fontColor=#545B64;dashed=1;" vertex="1" parent="kCsJqG-bQ9eDfg5gPCeY-2">
          <mxGeometry x="345" y="135" width="195" height="175" as="geometry" />
        </mxCell>
        <mxCell id="kCsJqG-bQ9eDfg5gPCeY-5" value="VPC" style="points=[[0,0],[0.25,0],[0.5,0],[0.75,0],[1,0],[1,0.25],[1,0.5],[1,0.75],[1,1],[0.75,1],[0.5,1],[0.25,1],[0,1],[0,0.75],[0,0.5],[0,0.25]];outlineConnect=0;gradientColor=none;html=1;whiteSpace=wrap;fontSize=12;fontStyle=0;container=1;pointerEvents=0;collapsible=0;recursiveResize=0;shape=mxgraph.aws4.group;grIcon=mxgraph.aws4.group_vpc;strokeColor=#248814;fillColor=none;verticalAlign=top;align=left;spacingLeft=30;fontColor=#AAB7B8;dashed=0;" vertex="1" parent="1">
          <mxGeometry x="240" y="40" width="584" height="770" as="geometry" />
        </mxCell>
        <mxCell id="kCsJqG-bQ9eDfg5gPCeY-6" value="Elastic Load Balancing" style="sketch=0;points=[[0,0,0],[0.25,0,0],[0.5,0,0],[0.75,0,0],[1,0,0],[0,1,0],[0.25,1,0],[0.5,1,0],[0.75,1,0],[1,1,0],[0,0.25,0],[0,0.5,0],[0,0.75,0],[1,0.25,0],[1,0.5,0],[1,0.75,0]];outlineConnect=0;fontColor=#232F3E;gradientColor=#945DF2;gradientDirection=north;fillColor=#5A30B5;strokeColor=#ffffff;dashed=0;verticalLabelPosition=bottom;verticalAlign=top;align=center;html=1;fontSize=12;fontStyle=0;aspect=fixed;shape=mxgraph.aws4.resourceIcon;resIcon=mxgraph.aws4.elastic_load_balancing;" vertex="1" parent="kCsJqG-bQ9eDfg5gPCeY-5">
          <mxGeometry x="240" y="10" width="58" height="58" as="geometry" />
        </mxCell>
        <mxCell id="kCsJqG-bQ9eDfg5gPCeY-8" value="Public Subnet" style="text;html=1;align=center;verticalAlign=middle;resizable=0;points=[];autosize=1;strokeColor=none;fillColor=none;" vertex="1" parent="kCsJqG-bQ9eDfg5gPCeY-5">
          <mxGeometry x="310" y="29" width="90" height="20" as="geometry" />
        </mxCell>
        <mxCell id="kCsJqG-bQ9eDfg5gPCeY-9" value="" style="rounded=1;arcSize=10;dashed=1;fillColor=none;gradientColor=none;dashPattern=8 3 1 3;strokeWidth=2;" vertex="1" parent="kCsJqG-bQ9eDfg5gPCeY-5">
          <mxGeometry x="17" y="140" width="550" height="130" as="geometry" />
        </mxCell>
        <mxCell id="kCsJqG-bQ9eDfg5gPCeY-10" value="Auto Scaling Group" style="text;html=1;align=center;verticalAlign=middle;resizable=0;points=[];autosize=1;strokeColor=none;fillColor=none;" vertex="1" parent="kCsJqG-bQ9eDfg5gPCeY-5">
          <mxGeometry x="209" y="190" width="120" height="20" as="geometry" />
        </mxCell>
      </root>
    </mxGraphModel>
  </diagram>
</mxfile>
